<svg width="548" height="547" viewBox="0 0 548 547" fill="none" xmlns="http://www.w3.org/2000/svg">
<g clip-path="url(#clip0_417:1243)">
<path d="M336.59 381.942C396.645 347.27 417.221 270.478 382.549 210.423C347.876 150.368 271.084 129.792 211.03 164.465C150.975 199.137 130.399 275.929 165.071 335.984C199.744 396.038 276.535 416.615 336.59 381.942Z" fill="url(#paint0_linear_417:1243)"/>
<path fill-rule="evenodd" clip-rule="evenodd" d="M211.857 174.339C187.827 189.172 169.123 213.402 161.185 243.026C152.957 273.735 157.847 305.533 172.839 331.5L157.305 340.469C140.01 310.513 134.361 273.832 143.859 238.384C152.991 204.301 174.547 176.29 202.436 159.076L211.857 174.339Z" fill="#120078"/>
<path fill-rule="evenodd" clip-rule="evenodd" d="M386.413 303.46C394.242 271.875 389.298 240.051 374.332 214.13L389.866 205.162C407.175 235.142 412.774 271.765 403.801 307.866L403.782 307.945L403.76 308.023C393.907 344.797 369.023 374.678 337.755 391.621L329.21 375.85C356.292 361.175 377.869 335.258 386.413 303.46Z" fill="#120078"/>
<path d="M304.304 326.022C304.304 326.022 228.771 326.136 209.936 293.514C200.968 277.98 206.22 258.378 221.754 249.409C237.288 240.441 256.891 245.693 265.859 261.227C256.891 245.693 262.143 226.091 277.677 217.122C293.211 208.154 312.365 212.629 321.782 228.94C342.169 260.665 304.304 326.022 304.304 326.022Z" fill="white"/>
<path fill-rule="evenodd" clip-rule="evenodd" d="M226.239 257.176C214.995 263.668 211.212 277.785 217.704 289.03C221.133 294.97 227.561 300.061 236.445 304.24C245.243 308.379 255.65 311.244 265.863 313.191C276.025 315.129 285.677 316.099 292.813 316.582C295.212 316.744 297.316 316.851 299.045 316.92C299.844 315.394 300.795 313.528 301.842 311.381C304.965 304.981 308.897 296.179 312.199 286.485C315.52 276.738 318.089 266.422 318.702 256.916C319.32 247.332 317.896 239.482 314.237 233.789L314.122 233.609L314.015 233.424C307.156 221.545 293.549 218.315 282.162 224.889C270.917 231.381 267.135 245.498 273.627 256.743L258.093 265.711C251.601 254.467 237.483 250.684 226.239 257.176ZM252.974 238.909C241.716 234.491 228.629 235.084 217.27 241.642C197.447 253.087 190.725 278.175 202.17 297.998C208.157 308.369 218.235 315.497 228.81 320.471C239.471 325.486 251.479 328.709 262.504 330.811C273.579 332.923 283.987 333.963 291.603 334.478C295.42 334.736 298.561 334.864 300.764 334.928C301.865 334.96 302.734 334.975 303.337 334.983C303.638 334.987 303.874 334.989 304.038 334.99L304.232 334.99L304.289 334.99L304.307 334.99C304.309 334.99 304.318 334.99 304.304 326.022L304.318 334.99L309.478 334.983L312.065 330.518L304.304 326.022C312.065 330.518 312.063 330.52 312.065 330.518L312.07 330.508L312.079 330.492L312.108 330.443L312.205 330.274C312.286 330.13 312.403 329.925 312.55 329.662C312.845 329.135 313.266 328.374 313.788 327.403C314.833 325.463 316.288 322.679 317.963 319.247C321.303 312.402 325.563 302.881 329.178 292.27C332.775 281.712 335.85 269.742 336.602 258.07C337.346 246.546 335.88 234.406 329.443 224.273C317.428 203.68 292.816 198.026 273.193 209.355C261.834 215.913 254.777 226.95 252.974 238.909Z" fill="#120078"/>
<path fill-rule="evenodd" clip-rule="evenodd" d="M179.041 117.689C140.233 141.082 109.985 179.278 97.478 225.956C84.6674 273.766 92.4676 321.523 114.876 362.05L99.1783 370.729C74.7094 326.475 66.0441 273.965 80.152 221.313C93.9065 169.981 127.155 128.021 169.781 102.327L179.041 117.689Z" fill="#120078"/>
<path fill-rule="evenodd" clip-rule="evenodd" d="M449.694 319.676C462.879 270.468 456.844 227.896 433.395 187.282L448.929 178.313C474.808 223.136 481.41 270.615 467.02 324.318C452.595 378.155 417.715 421.11 372.443 446.161L363.759 430.467C404.821 407.745 436.545 368.751 449.694 319.676Z" fill="#120078"/>
<path fill-rule="evenodd" clip-rule="evenodd" d="M94.7947 362.814L168.027 323.167L172.39 330.724C187.383 356.691 212.475 376.825 243.184 385.053C272.901 393.016 304.453 389.191 329.23 375.842L336.689 371.823L380.24 442.698L372.257 447.307C328.307 472.682 274.505 480.953 221.92 466.863L221.818 466.836C167.607 451.624 124.679 416.778 99.1812 370.735L94.7947 362.814ZM119.457 369.86C143.014 407.821 180.175 436.507 226.613 449.551C271.28 461.505 316.848 455.736 355.18 436.178L330.123 395.399C302.587 407.857 269.611 410.705 238.542 402.379C206.079 393.681 179.072 373.464 161.471 347.114L119.457 369.86Z" fill="#0069FF"/>
<path fill-rule="evenodd" clip-rule="evenodd" d="M186.24 112.561L210.444 154.484C239.557 138.93 273.203 133.104 308.182 142.476L308.26 142.497L308.339 142.52C340.855 151.869 367.405 171.251 384.985 197.344L424.815 172.849C401.41 136.537 364.719 108.584 319.884 96.5572C273.09 84.6206 225.786 91.2988 186.24 112.561ZM169.34 101.546C214.407 74.4423 269.779 65.2485 324.373 79.1908L324.475 79.2169C377.06 93.307 419.518 127.372 444.893 171.322L449.254 178.877L378.943 222.117L374.333 214.132C359.4 188.268 334.792 168.81 303.46 159.781C270.656 151.015 239.08 157.652 211.833 174.354L203.983 179.166L161.79 106.086L169.34 101.546Z" fill="#0069FF"/>
</g>
<defs>
<linearGradient id="paint0_linear_417:1243" x1="211.03" y1="164.465" x2="334.41" y2="378.167" gradientUnits="userSpaceOnUse">
<stop stop-color="#0069FF" stop-opacity="0.6"/>
<stop offset="1" stop-color="#0069FF" stop-opacity="0"/>
</linearGradient>
<clipPath id="clip0_417:1243">
<rect width="400" height="400" fill="white" transform="translate(0.605469 200) rotate(-30)"/>
</clipPath>
</defs>
</svg>
