<svg width="614" height="550" viewBox="0 0 614 550" fill="none" xmlns="http://www.w3.org/2000/svg">
<g clip-path="url(#clip0_417:1238)">
<path fill-rule="evenodd" clip-rule="evenodd" d="M170.665 16.8578C187.146 -11.6877 223.918 -21.5406 252.463 -5.05988L403.888 82.3653C432.434 98.846 442.286 135.618 425.806 164.163L412.632 186.981L391.889 175.005L405.063 152.187C414.929 135.098 409.001 112.975 391.912 103.108L240.487 15.6832C223.398 5.81668 201.275 11.7445 191.408 28.8339L127.935 138.772C118.069 155.862 123.997 177.985 141.086 187.851L176.349 208.21L153.68 247.475L215.614 230.88L255.173 253.719L243.197 274.463L212.23 256.584L104.024 285.577L143.63 216.978L129.11 208.594C100.564 192.114 90.7115 155.342 107.192 126.796L170.665 16.8578Z" fill="#005DFF"/>
<path fill-rule="evenodd" clip-rule="evenodd" d="M412.631 186.982L363.529 272.029C347.048 300.575 310.277 310.428 281.731 293.947L244.394 272.39L256.37 251.647L293.707 273.204C310.797 283.07 332.92 277.142 342.786 260.053L391.888 175.006L412.631 186.982Z" fill="#005DFF"/>
<path fill-rule="evenodd" clip-rule="evenodd" d="M357.735 171.885C340.646 162.019 318.523 167.947 308.657 185.036L245.183 294.975C235.317 312.064 241.245 334.187 258.334 344.053L337.305 389.647L353.901 451.581L376.57 412.317L411.833 432.676C428.923 442.543 451.045 436.615 460.912 419.525L524.385 309.587C534.252 292.498 528.324 270.375 511.234 260.508L357.735 171.885ZM287.913 173.06C304.394 144.514 341.166 134.662 369.711 151.142L523.21 239.765C551.756 256.246 561.609 293.017 545.128 321.563L481.655 431.502C465.174 460.047 428.403 469.9 399.857 453.419L385.337 445.036L345.731 513.636L316.737 405.43L246.358 364.796C217.813 348.316 207.96 311.544 224.44 282.999L287.913 173.06Z" fill="#120078"/>
</g>
<defs>
<clipPath id="clip0_417:1238">
<rect width="476.647" height="400" fill="white" transform="translate(200.605 -35) rotate(30)"/>
</clipPath>
</defs>
</svg>
